<?xml version="1.0" standalone="no"?>
<svg version="1.0" xmlns="http://www.w3.org/2000/svg"
 width="128.000000pt" height="128.000000pt" viewBox="0 0 128.000000 128.000000"
 preserveAspectRatio="xMidYMid meet">

<g transform="translate(0.000000,128.000000) scale(0.100000,-0.100000)"
 stroke="none">
<path fill="#1278bd" d="M566 1190 c-31 -19 -65 -73 -66 -100 0 -10 -56 -48 -140 -95 -76 -44
-136 -83 -132 -86 4 -3 30 -19 58 -35 l52 -28 105 61 c95 55 107 60 125 47 35
-24 93 -27 133 -6 l37 19 102 -61 103 -60 54 30 c30 16 56 32 58 35 2 3 -55
39 -128 81 -72 41 -134 81 -138 89 -4 8 -14 31 -23 52 -30 71 -134 101 -200
57z m118 -61 c34 -27 36 -79 4 -109 -28 -26 -58 -26 -92 1 -34 27 -35 71 -1
104 30 30 54 31 89 4z"/>
<path fill="#1278bd" d="M150 638 c0 -159 -1 -164 -25 -186 -49 -47 -56 -132 -15 -185 11 -14
41 -33 66 -43 37 -14 51 -15 82 -6 36 11 41 9 172 -66 74 -42 138 -79 143 -80
4 -2 7 27 5 64 l-3 69 -105 60 c-58 34 -105 68 -106 76 0 8 -2 27 -2 43 -2 21
-16 42 -47 73 l-45 43 0 114 c0 124 4 116 -72 160 l-48 27 0 -163z m103 -220
c52 -27 61 -75 22 -113 -13 -14 -36 -25 -50 -25 -33 0 -75 42 -75 75 0 29 40
75 65 75 9 0 26 -5 38 -12z"/>
<path fill="#1278bd" d="M1068 762 l-58 -34 0 -123 c0 -120 0 -122 -25 -133 -34 -16 -65 -69
-65 -112 -1 -34 -4 -37 -105 -94 l-103 -59 -4 -69 c-2 -37 -2 -68 -1 -68 2 0
65 36 141 80 132 76 139 79 175 69 90 -24 177 42 177 136 0 42 -21 88 -50 108
-18 12 -20 27 -22 173 l-3 160 -57 -34z m36 -353 c50 -39 20 -129 -44 -129
-68 0 -96 81 -44 128 31 27 54 28 88 1z"/>
<path fill="#d2d2d2" d="M590 769 c-52 -16 -86 -45 -109 -92 -26 -54 -27 -116 -2 -165 23 -46
46 -67 94 -87 46 -19 88 -19 135 0 75 32 114 89 114 167 -1 123 -117 211 -232
177z"/>
</g>
</svg>
